<svg version="1.1" id="Layer_1" xmlns="http://www.w3.org/2000/svg" xmlns:xlink="http://www.w3.org/1999/xlink" x="0px" y="0px"
	 width="100%" viewBox="0 0 1254 1254" enable-background="new 0 0 1254 1254" xml:space="preserve">
<path fill="#010000" opacity="1.000000" stroke="none" 
	d="
M0.999995,981.000000 
	C1.000000,745.643311 1.000000,510.286682 1.368560,274.260284 
	C2.873014,263.841003 3.399133,253.974564 5.241784,244.360458 
	C19.298319,171.019958 55.212021,110.643883 113.772240,64.171127 
	C157.701675,29.309212 207.676071,8.669140 263.555664,2.620241 
	C266.395630,2.312817 269.186340,1.550513 272.000000,1.000000 
	C275.693573,1.000000 279.387177,1.000000 283.817566,1.316997 
	C286.032532,1.761553 287.510712,2.000737 288.988892,2.000873 
	C515.784485,2.021772 742.580139,2.027459 969.375732,1.987251 
	C970.917236,1.986978 972.458557,1.343263 974.000000,1.000000 
	C975.714478,1.000000 977.428894,1.000000 979.804321,1.354405 
	C989.238831,2.581282 998.099243,2.940489 1006.772400,4.407112 
	C1078.693970,16.569050 1138.276733,50.723045 1185.574097,106.082375 
	C1222.007935,148.726395 1244.064697,198.062149 1252.250244,253.570343 
	C1253.204346,260.041351 1254.085205,266.523163 1255.000000,273.000000 
	C1255.000000,510.023315 1255.000000,747.046631 1254.620361,984.695923 
	C1247.593262,1052.432495 1222.326294,1111.223511 1176.019409,1160.653809 
	C1128.550537,1211.324707 1070.628540,1242.053467 1001.860840,1252.160156 
	C995.244324,1253.132568 988.620422,1254.054565 982.000000,1255.000000 
	C978.969177,1255.000000 975.938293,1255.000000 972.176514,1254.683350 
	C970.133484,1254.241577 968.821533,1254.006714 967.509521,1254.006592 
	C741.225647,1253.989868 514.941833,1253.987915 288.657990,1254.031250 
	C287.105255,1254.031494 285.552673,1254.663208 284.000000,1255.000000 
	C280.638336,1255.000000 277.276642,1255.000000 273.263306,1254.635010 
	C265.342316,1253.409180 258.033905,1252.794556 250.809814,1251.648438 
	C189.689255,1241.950928 136.615341,1215.835205 92.002991,1172.932129 
	C42.925407,1125.734985 13.525001,1068.328979 3.845188,1000.881653 
	C2.894130,994.254822 1.948268,987.627258 0.999995,981.000000 
M578.919861,946.320190 
	C599.858154,946.320190 620.796387,946.320190 641.891479,946.320190 
	C641.891479,847.302246 641.891479,748.740295 641.891479,650.192749 
	C620.038452,650.192749 598.479065,650.192749 576.742859,650.192749 
	C576.742859,652.872192 576.721313,655.200562 576.754395,657.528137 
	C576.766174,658.353027 576.911072,659.176025 576.791016,660.784424 
	C576.863220,661.856201 576.935425,662.927979 576.794250,664.735291 
	C576.870422,665.490479 576.946594,666.245605 576.832031,667.658203 
	C576.897583,668.105164 576.963135,668.552124 576.822571,669.656006 
	C576.892212,670.104309 576.961853,670.552673 576.838928,671.920898 
	C576.897217,703.947144 576.955444,735.973328 576.796936,768.854553 
	C576.869629,770.903198 576.942322,772.951843 576.817017,775.918762 
	C576.878052,781.945862 576.939148,787.972900 576.778015,794.853760 
	C576.854004,796.902527 576.929993,798.951355 576.805237,801.857788 
	C576.874695,803.905029 576.944153,805.952332 576.797729,808.886841 
	C576.870117,811.924744 576.942505,814.962585 576.815063,818.918335 
	C576.882141,824.945374 576.949219,830.972473 576.799561,837.878601 
	C576.871582,840.585876 576.943604,843.293213 576.817810,846.918091 
	C576.883728,852.611877 576.949646,858.305725 576.798645,864.836914 
	C576.869202,866.558044 576.939697,868.279114 576.809021,870.817322 
	C576.875244,872.211487 576.941467,873.605591 576.788940,875.867126 
	C576.863159,878.244873 576.937378,880.622620 576.813110,883.919312 
	C576.878540,899.279480 576.943909,914.639587 576.790588,930.836731 
	C576.860107,932.557800 576.929565,934.278931 576.793945,936.656067 
	C576.860840,937.104126 576.927734,937.552124 576.771912,938.654297 
	C576.845337,939.102783 576.918823,939.551270 576.786682,940.656006 
	C576.855103,941.104065 576.923523,941.552185 576.766357,942.733215 
	C576.841003,943.488403 576.915649,944.243591 576.909729,945.667419 
	C577.277222,945.802612 577.644714,945.937805 578.919861,946.320190 
M237.565948,375.499207 
	C237.565948,566.937134 237.565948,758.375000 237.565948,949.988342 
	C270.763611,949.988342 303.518097,949.988342 336.814606,949.988342 
	C336.814606,848.987366 336.814606,748.263672 336.814606,647.154419 
	C339.317810,647.154419 341.284271,647.154724 343.250732,647.154419 
	C393.081299,647.146301 442.911865,647.136719 492.742432,647.133789 
	C495.370392,647.133606 497.657257,647.354431 499.516327,644.399902 
	C519.210999,613.100342 539.098694,581.922180 558.915100,550.699158 
	C559.468323,549.827576 559.821167,548.828918 560.579834,547.231934 
	C485.611481,547.231934 411.377594,547.231934 337.017517,547.231934 
	C337.017517,509.518402 337.017517,472.272461 337.017517,434.506317 
	C445.170441,434.506317 553.065491,434.506317 661.079163,434.506317 
	C661.079163,400.944855 661.079163,367.905334 661.079163,334.831787 
	C519.770020,334.831787 378.820435,334.831787 237.562958,334.831787 
	C237.562958,348.223083 237.562958,361.361084 237.565948,375.499207 
M851.438721,952.063904 
	C890.869446,956.994507 928.044678,950.221558 962.822876,930.202148 
	C988.550049,955.069275 1014.113892,979.778564 1039.878052,1004.681458 
	C1053.020142,990.779907 1065.765503,977.297974 1078.707153,963.608337 
	C1054.755615,940.186218 1031.202026,917.153442 1007.853210,894.320740 
	C1007.853210,893.771545 1007.786377,893.561218 1007.863281,893.460754 
	C1009.176880,891.741882 1010.537537,890.058472 1011.831421,888.325134 
	C1056.635010,828.307312 1064.869263,763.712708 1031.597046,696.468872 
	C1003.339172,639.358948 955.271851,606.841248 891.926270,600.447144 
	C834.142578,594.614502 784.511292,614.492554 745.489868,657.638733 
	C705.688171,701.647583 691.279541,753.852173 702.744629,812.001709 
	C717.234497,885.492371 776.414124,940.675720 851.438721,952.063904 
z"/>
<path fill="#FDFDFD" opacity="1.000000" stroke="none" 
	d="
M0.999995,981.468628 
	C1.948268,987.627258 2.894130,994.254822 3.845188,1000.881653 
	C13.525001,1068.328979 42.925407,1125.734985 92.002991,1172.932129 
	C136.615341,1215.835205 189.689255,1241.950928 250.809814,1251.648438 
	C258.033905,1252.794556 265.342316,1253.409180 272.805817,1254.635010 
	C182.406006,1255.000000 91.812019,1255.000000 1.000000,1255.000000 
	C1.000000,1163.979248 1.000000,1072.958252 0.999995,981.468628 
z"/>
<path fill="#FDFDFD" opacity="1.000000" stroke="none" 
	d="
M271.531342,1.000000 
	C269.186340,1.550513 266.395630,2.312817 263.555664,2.620241 
	C207.676071,8.669140 157.701675,29.309212 113.772240,64.171127 
	C55.212021,110.643883 19.298319,171.019958 5.241784,244.360458 
	C3.399133,253.974564 2.873014,263.841003 1.368560,273.795288 
	C1.000000,183.073227 1.000000,92.146461 1.000000,1.000000 
	C91.020775,1.000000 181.041733,1.000000 271.531342,1.000000 
z"/>
<path fill="#FDFDFD" opacity="1.000000" stroke="none" 
	d="
M1255.000000,272.531342 
	C1254.085205,266.523163 1253.204346,260.041351 1252.250244,253.570343 
	C1244.064697,198.062149 1222.007935,148.726395 1185.574097,106.082375 
	C1138.276733,50.723045 1078.693970,16.569050 1006.772400,4.407112 
	C998.099243,2.940489 989.238831,2.581282 980.232605,1.354405 
	C1071.593262,1.000000 1163.186646,1.000000 1255.000000,1.000000 
	C1255.000000,91.354111 1255.000000,181.708389 1255.000000,272.531342 
z"/>
<path fill="#FDFDFD" opacity="1.000000" stroke="none" 
	d="
M982.468628,1255.000000 
	C988.620422,1254.054565 995.244324,1253.132568 1001.860840,1252.160156 
	C1070.628540,1242.053467 1128.550537,1211.324707 1176.019409,1160.653809 
	C1222.326294,1111.223511 1247.593262,1052.432495 1254.620361,985.160950 
	C1255.000000,1074.927490 1255.000000,1164.854858 1255.000000,1255.000000 
	C1164.312500,1255.000000 1073.624878,1255.000000 982.468628,1255.000000 
z"/>
<path fill="#171717" opacity="1.000000" stroke="none" 
	d="
M973.531372,1.000000 
	C972.458557,1.343263 970.917236,1.986978 969.375732,1.987251 
	C742.580139,2.027459 515.784485,2.021772 288.988892,2.000873 
	C287.510712,2.000737 286.032532,1.761553 284.277161,1.316997 
	C513.687561,1.000000 743.375122,1.000000 973.531372,1.000000 
z"/>
<path fill="#121111" opacity="1.000000" stroke="none" 
	d="
M284.468689,1255.000000 
	C285.552673,1254.663208 287.105255,1254.031494 288.657990,1254.031250 
	C514.941833,1253.987915 741.225647,1253.989868 967.509521,1254.006592 
	C968.821533,1254.006714 970.133484,1254.241577 971.722778,1254.683350 
	C742.979126,1255.000000 513.958191,1255.000000 284.468689,1255.000000 
z"/>
<path fill="#FDFDFD" opacity="1.000000" stroke="none" 
	d="
M237.564453,374.999146 
	C237.562958,361.361084 237.562958,348.223083 237.562958,334.831787 
	C378.820435,334.831787 519.770020,334.831787 661.079163,334.831787 
	C661.079163,367.905334 661.079163,400.944855 661.079163,434.506317 
	C553.065491,434.506317 445.170441,434.506317 337.017517,434.506317 
	C337.017517,472.272461 337.017517,509.518402 337.017517,547.231934 
	C411.377594,547.231934 485.611481,547.231934 560.579834,547.231934 
	C559.821167,548.828918 559.468323,549.827576 558.915100,550.699158 
	C539.098694,581.922180 519.210999,613.100342 499.516327,644.399902 
	C497.657257,647.354431 495.370392,647.133606 492.742432,647.133789 
	C442.911865,647.136719 393.081299,647.146301 343.250732,647.154419 
	C341.284271,647.154724 339.317810,647.154419 336.814606,647.154419 
	C336.814606,748.263672 336.814606,848.987366 336.814606,949.988342 
	C303.518097,949.988342 270.763611,949.988342 237.565948,949.988342 
	C237.565948,758.375000 237.565948,566.937134 237.564453,374.999146 
z"/>
<path fill="#FCFCFC" opacity="1.000000" stroke="none" 
	d="
M851.000427,952.003784 
	C776.414124,940.675720 717.234497,885.492371 702.744629,812.001709 
	C691.279541,753.852173 705.688171,701.647583 745.489868,657.638733 
	C784.511292,614.492554 834.142578,594.614502 891.926270,600.447144 
	C955.271851,606.841248 1003.339172,639.358948 1031.597046,696.468872 
	C1064.869263,763.712708 1056.635010,828.307312 1011.831421,888.325134 
	C1010.537537,890.058472 1009.176880,891.741882 1007.863281,893.460754 
	C1007.786377,893.561218 1007.853210,893.771545 1007.853210,894.320740 
	C1031.202026,917.153442 1054.755615,940.186218 1078.707153,963.608337 
	C1065.765503,977.297974 1053.020142,990.779907 1039.878052,1004.681458 
	C1014.113892,979.778564 988.550049,955.069275 962.822876,930.202148 
	C928.044678,950.221558 890.869446,956.994507 851.000427,952.003784 
M982.298157,763.294373 
	C980.797729,756.477966 979.726990,749.532776 977.728577,742.865662 
	C962.496887,692.050232 907.889709,659.304077 855.945129,669.322205 
	C782.120972,683.560120 746.551086,763.070679 777.753418,825.552551 
	C800.096680,870.294495 853.378113,895.317627 901.708618,882.528870 
	C954.677368,868.512817 988.141602,819.473145 982.298157,763.294373 
z"/>
<path fill="#FEFEFE" opacity="1.000000" stroke="none" 
	d="
M576.992004,942.000244 
	C576.923523,941.552185 576.855103,941.104065 577.188782,940.288696 
	C577.911926,939.514526 578.232971,939.107727 578.554077,938.700928 
	C578.034302,938.467346 577.514465,938.233765 576.994629,938.000183 
	C576.927734,937.552124 576.860840,937.104126 577.258057,936.284363 
	C581.316101,933.479736 581.183838,931.496094 577.009338,929.999756 
	C576.943909,914.639587 576.878540,899.279480 577.291443,883.376404 
	C579.406677,880.038269 580.553650,877.290771 577.007690,874.999756 
	C576.941467,873.605591 576.875244,872.211487 577.275635,870.333740 
	C579.678345,867.629395 580.084229,865.598633 577.015503,863.999512 
	C576.949646,858.305725 576.883728,852.611877 577.301025,846.372559 
	C579.253174,842.734436 580.582397,839.654053 577.016296,836.999512 
	C576.949219,830.972473 576.882141,824.945374 577.301758,818.370789 
	C579.387756,814.402161 580.651978,811.007507 577.013611,807.999573 
	C576.944153,805.952332 576.874695,803.905029 577.280945,801.349487 
	C579.321350,798.359924 580.517883,795.919373 577.000244,794.000000 
	C576.939148,787.972900 576.878052,781.945862 577.290527,775.379517 
	C579.320312,772.361877 580.505615,769.924255 577.013733,767.999573 
	C576.955444,735.973328 576.897217,703.947144 577.230713,671.420288 
	C577.936768,670.513916 578.251038,670.108093 578.565308,669.702271 
	C578.053040,669.467896 577.540833,669.233521 577.028625,668.999084 
	C576.963135,668.552124 576.897583,668.105164 577.294922,667.320740 
	C578.421936,666.367310 579.085999,665.751282 579.750122,665.135315 
	C578.835938,664.756775 577.921814,664.378296 577.007629,663.999756 
	C576.935425,662.927979 576.863220,661.856201 577.268921,660.314148 
	C578.102234,659.517212 578.686829,659.244812 578.778931,658.855774 
	C580.309509,652.393127 581.758545,651.696716 588.234802,654.051270 
	C589.733215,654.596008 591.575500,655.122131 593.019226,654.742615 
	C604.167480,651.811768 615.269531,652.210266 626.418823,654.619324 
	C627.483093,654.849304 628.764038,654.815613 629.773376,654.442078 
	C637.046692,651.750671 637.999329,652.385315 637.999390,660.213074 
	C638.000061,752.178162 638.000000,844.143250 637.999878,936.108337 
	C637.999878,937.274536 637.913391,938.447693 638.010864,939.605530 
	C638.236206,942.283447 636.909119,943.150940 634.426270,943.012756 
	C631.143555,942.829956 627.854736,942.721191 624.567139,942.671387 
	C608.709045,942.430908 592.850403,942.221008 576.992004,942.000244 
z"/>
<path fill="#F7F7F7" opacity="1.000000" stroke="none" 
	d="
M576.879150,942.366699 
	C592.850403,942.221008 608.709045,942.430908 624.567139,942.671387 
	C627.854736,942.721191 631.143555,942.829956 634.426270,943.012756 
	C636.909119,943.150940 638.236206,942.283447 638.010864,939.605530 
	C637.913391,938.447693 637.999878,937.274536 637.999878,936.108337 
	C638.000000,844.143250 638.000061,752.178162 637.999390,660.213074 
	C637.999329,652.385315 637.046692,651.750671 629.773376,654.442078 
	C628.764038,654.815613 627.483093,654.849304 626.418823,654.619324 
	C615.269531,652.210266 604.167480,651.811768 593.019226,654.742615 
	C591.575500,655.122131 589.733215,654.596008 588.234802,654.051270 
	C581.758545,651.696716 580.309509,652.393127 578.778931,658.855774 
	C578.686829,659.244812 578.102234,659.517212 577.370972,659.921875 
	C576.911072,659.176025 576.766174,658.353027 576.754395,657.528137 
	C576.721313,655.200562 576.742859,652.872192 576.742859,650.192749 
	C598.479065,650.192749 620.038452,650.192749 641.891479,650.192749 
	C641.891479,748.740295 641.891479,847.302246 641.891479,946.320190 
	C620.796387,946.320190 599.858154,946.320190 578.355347,945.965942 
	C577.523987,945.407410 577.257141,945.203125 576.990295,944.998779 
	C576.915649,944.243591 576.841003,943.488403 576.879150,942.366699 
z"/>
<path fill="#F7F7F7" opacity="1.000000" stroke="none" 
	d="
M576.905640,808.443237 
	C580.651978,811.007507 579.387756,814.402161 577.401672,817.911865 
	C576.942505,814.962585 576.870117,811.924744 576.905640,808.443237 
z"/>
<path fill="#F7F7F7" opacity="1.000000" stroke="none" 
	d="
M576.907959,837.439087 
	C580.582397,839.654053 579.253174,842.734436 577.399902,845.913696 
	C576.943604,843.293213 576.871582,840.585876 576.907959,837.439087 
z"/>
<path fill="#F7F7F7" opacity="1.000000" stroke="none" 
	d="
M576.898315,875.433472 
	C580.553650,877.290771 579.406677,880.038269 577.390686,882.916931 
	C576.937378,880.622620 576.863159,878.244873 576.898315,875.433472 
z"/>
<path fill="#F7F7F7" opacity="1.000000" stroke="none" 
	d="
M576.899963,930.418213 
	C581.183838,931.496094 581.316101,933.479736 577.360596,935.956299 
	C576.929565,934.278931 576.860107,932.557800 576.899963,930.418213 
z"/>
<path fill="#F7F7F7" opacity="1.000000" stroke="none" 
	d="
M576.889160,794.426880 
	C580.517883,795.919373 579.321350,798.359924 577.381348,800.920654 
	C576.929993,798.951355 576.854004,796.902527 576.889160,794.426880 
z"/>
<path fill="#F7F7F7" opacity="1.000000" stroke="none" 
	d="
M576.905334,768.427063 
	C580.505615,769.924255 579.320312,772.361877 577.389526,774.920349 
	C576.942322,772.951843 576.869629,770.903198 576.905334,768.427063 
z"/>
<path fill="#F7F7F7" opacity="1.000000" stroke="none" 
	d="
M576.907104,864.418213 
	C580.084229,865.598633 579.678345,867.629395 577.376221,869.925232 
	C576.939697,868.279114 576.869202,866.558044 576.907104,864.418213 
z"/>
<path fill="#F7F7F7" opacity="1.000000" stroke="none" 
	d="
M576.900940,664.367554 
	C577.921814,664.378296 578.835938,664.756775 579.750122,665.135315 
	C579.085999,665.751282 578.421936,666.367310 577.390259,666.992065 
	C576.946594,666.245605 576.870422,665.490479 576.900940,664.367554 
z"/>
<path fill="#F7F7F7" opacity="1.000000" stroke="none" 
	d="
M576.883301,938.327271 
	C577.514465,938.233765 578.034302,938.467346 578.554077,938.700928 
	C578.232971,939.107727 577.911926,939.514526 577.291565,939.960571 
	C576.918823,939.551270 576.845337,939.102783 576.883301,938.327271 
z"/>
<path fill="#F7F7F7" opacity="1.000000" stroke="none" 
	d="
M576.925598,669.327515 
	C577.540833,669.233521 578.053040,669.467896 578.565308,669.702271 
	C578.251038,670.108093 577.936768,670.513916 577.327026,670.960327 
	C576.961853,670.552673 576.892212,670.104309 576.925598,669.327515 
z"/>
<path fill="#FFFFFF" opacity="1.000000" stroke="none" 
	d="
M576.950012,945.333130 
	C577.257141,945.203125 577.523987,945.407410 577.901550,945.842407 
	C577.644714,945.937805 577.277222,945.802612 576.950012,945.333130 
z"/>
<path fill="#010101" opacity="1.000000" stroke="none" 
	d="
M982.383240,763.737549 
	C988.141602,819.473145 954.677368,868.512817 901.708618,882.528870 
	C853.378113,895.317627 800.096680,870.294495 777.753418,825.552551 
	C746.551086,763.070679 782.120972,683.560120 855.945129,669.322205 
	C907.889709,659.304077 962.496887,692.050232 977.728577,742.865662 
	C979.726990,749.532776 980.797729,756.477966 982.383240,763.737549 
z"/>
</svg>